/* XPM */
static char *result[] = {
/* columns rows colors chars-per-pixel */
"48 48 181 2 ",
"   c #FEC927",
".  c #FECA27",
"X  c #F7C82D",
"o  c #F7C82E",
"O  c #F6C92F",
"+  c #FBC92A",
"@  c #FAC92B",
"#  c #FBC92B",
"$  c #FDC928",
"%  c #FCC929",
"&  c #FDC929",
"*  c #FEC928",
"=  c #FEC929",
"-  c #FDCA28",
";  c #FCCA29",
":  c #FDCA29",
">  c #FECA28",
",  c #FFCA28",
"<  c #FCC92A",
"1  c #FCCA2A",
"2  c #F9C82C",
"3  c #F9C92C",
"4  c #FAC92C",
"5  c #F8C92E",
"6  c #EDC736",
"7  c #EEC835",
"8  c #ECC837",
"9  c #EDC837",
"0  c #E7C63B",
"q  c #E2C63F",
"w  c #E6C73C",
"e  c #EBC738",
"r  c #E9C73A",
"t  c #E8C73B",
"y  c #F3C831",
"u  c #F1C833",
"i  c #F3C832",
"p  c #F5C930",
"a  c #F4C831",
"s  c #97BE7F",
"d  c #9FBF78",
"f  c #9FBF79",
"g  c #9CBE7A",
"h  c #9ABE7C",
"j  c #9BBE7C",
"k  c #A3BF74",
"l  c #A2BF75",
"z  c #A1BF76",
"x  c #A2BF76",
"c  c #A4BF74",
"v  c #BCC25F",
"b  c #BDC25F",
"n  c #BEC25E",
"m  c #BEC35E",
"M  c #ABC06E",
"N  c #ACC06D",
"B  c #B4C166",
"V  c #B5C166",
"C  c #BBC260",
"Z  c #BBC261",
"A  c #B9C162",
"S  c #BAC262",
"D  c #BCC260",
"F  c #B1C068",
"G  c #B2C168",
"H  c #DDC643",
"J  c #DFC642",
"K  c #DEC643",
"L  c #D9C547",
"P  c #DAC546",
"I  c #DDC644",
"U  c #DCC645",
"Y  c #D5C54B",
"T  c #D1C44D",
"R  c #D3C54C",
"E  c #D8C548",
"W  c #D8C549",
"Q  c #C6C357",
"!  c #CCC352",
"~  c #CDC451",
"^  c #C9C355",
"/  c #C8C356",
"(  c #C1C25B",
")  c #C2C35B",
"_  c #C0C25C",
"`  c #C0C35C",
"'  c #C1C35C",
"]  c #C0C25D",
"[  c #E1C640",
"{  c #E0C641",
"}  c #E2C640",
"|  c #7FBB93",
" . c #7CBB96",
".. c #79BA99",
"X. c #5FB7AE",
"o. c #5AB7B3",
"O. c #5CB7B0",
"+. c #58B7B4",
"@. c #53B6B8",
"#. c #53B6B9",
"$. c #54B6B8",
"%. c #67B8A7",
"&. c #6FB9A0",
"*. c #6DB9A3",
"=. c #63B8AB",
"-. c #65B8A9",
";. c #66B8A8",
":. c #67B8A8",
">. c #64B8AA",
",. c #61B8AD",
"<. c #3AB3CD",
"1. c #39B3CE",
"2. c #3AB3CE",
"3. c #2EB2D7",
"4. c #26B1DE",
"5. c #2AB1DB",
"6. c #29B1DC",
"7. c #33B2D3",
"8. c #35B3D1",
"9. c #37B3D0",
"0. c #35B3D2",
"q. c #32B3D4",
"w. c #30B2D6",
"e. c #16AFEB",
"r. c #17AFEB",
"t. c #13AFEE",
"y. c #15AFED",
"u. c #16AFEC",
"i. c #1BB0E7",
"p. c #1DB0E5",
"a. c #1CB0E6",
"s. c #1DB0E6",
"d. c #19B0E9",
"f. c #1AB0E8",
"g. c #18B0EA",
"h. c #0FAEF2",
"j. c #0EAEF3",
"k. c #0BAEF5",
"l. c #09AEF6",
"z. c #09AEF7",
"x. c #0AAEF6",
"c. c #0CAEF4",
"v. c #03ADFB",
"b. c #07ADF8",
"n. c #06ADF9",
"m. c #07ADF9",
"M. c #04ADFA",
"N. c #05ADFA",
"B. c #04ADFB",
"V. c #06ADFA",
"C. c #01ADFD",
"Z. c #02ADFC",
"A. c #03ADFC",
"S. c #02ADFD",
"D. c #00ADFE",
"F. c #01ADFE",
"G. c #00ADFF",
"H. c #04ADFC",
"J. c #08AEF8",
"K. c #10AEF0",
"L. c #11AEF0",
"P. c #11AFF0",
"I. c #10AEF1",
"U. c #10AFF1",
"Y. c #22B1E1",
"T. c #20B0E3",
"R. c #24B1E0",
"E. c #47B4C2",
"W. c #46B4C3",
"Q. c #46B5C3",
"!. c #41B4C7",
"~. c #44B4C5",
"^. c #48B4C1",
"/. c #48B5C1",
"(. c #4AB5C0",
"). c #83BB8F",
"_. c #87BC8C",
"`. c #86BC8D",
"'. c #8ABC8A",
"]. c #95BE80",
"[. c #83BB90",
/* pixels */
"G.G.G.G.G.G.G.G.G.G.G.G.G.G.G.G.G.G.G.G.G.G.G.G.G.G.G.G.G.G.G.G.G.G.G.G.G.G.G.G.G.G.G.G.G.G.G.G.",
"G.G.G.G.G.G.G.G.G.G.G.G.G.G.G.G.G.G.G.G.G.G.G.G.G.G.G.G.G.G.G.G.G.G.G.G.G.G.G.G.G.G.G.G.G.G.G.G.",
"G.G.G.G.G.G.G.G.G.G.G.G.G.G.G.G.G.G.G.G.G.G.G.G.G.G.G.G.G.G.G.G.G.G.G.G.G.G.G.G.G.G.G.G.G.G.G.G.",
"G.G.G.G.G.G.G.G.G.G.G.G.G.G.G.G.G.G.G.G.G.G.G.G.G.G.G.G.G.G.G.G.G.G.G.G.G.G.G.G.G.G.G.G.G.G.G.G.",
"G.G.G.G.G.G.G.G.G.G.G.G.G.G.G.G.G.G.G.G.G.G.G.G.G.G.G.G.G.G.G.G.G.G.G.G.G.G.G.G.G.G.G.G.G.G.G.G.",
"G.G.G.G.G.G.G.G.G.G.G.G.G.G.G.G.G.G.G.G.G.G.G.G.G.G.G.G.G.G.G.G.G.G.G.G.G.G.G.G.G.G.G.G.G.G.G.G.",
"G.G.G.G.G.G.G.G.G.G.G.G.G.G.G.G.G.G.G.G.G.G.G.G.G.G.G.G.G.G.G.G.G.G.G.G.G.G.G.G.G.G.G.G.G.G.G.G.",
"G.G.G.G.G.G.G.G.G.G.G.G.G.G.G.G.G.G.G.G.G.G.G.G.G.G.G.G.G.G.G.G.G.G.G.G.G.G.G.G.G.G.G.G.G.G.G.G.",
"G.G.G.G.G.G.G.G.G.G.G.G.G.G.G.G.G.G.G.G.G.G.G.G.G.G.G.G.G.G.G.G.G.G.G.G.G.G.G.G.G.G.G.G.G.G.G.G.",
"G.G.G.G.G.G.G.G.G.G.G.G.G.G.G.G.G.G.G.G.G.G.G.D.D.D.G.G.G.G.G.G.G.G.G.G.G.G.G.G.G.G.G.G.G.G.G.G.",
"G.G.G.G.G.G.G.G.G.G.G.G.G.G.G.G.G.G.G.G.G.G.G.Z.Z.F.G.G.G.G.G.G.G.G.G.G.G.G.G.G.G.G.G.G.G.G.G.G.",
"G.G.G.G.G.G.G.G.G.G.G.G.G.G.G.G.G.G.G.G.G.G.k.$.O.4.C.G.G.G.G.G.G.G.G.G.G.G.G.G.G.G.G.G.G.G.G.G.",
"G.G.G.G.G.G.G.G.G.G.G.G.G.G.G.G.G.G.G.G.G.G.T.Y 7 =.N.G.G.G.G.G.G.G.G.G.G.G.G.G.G.G.G.G.G.G.G.G.",
"G.G.G.G.G.G.G.G.G.G.G.G.G.G.G.G.G.G.G.G.D.l.5.} + *.t.S.D.G.G.G.G.G.G.G.G.G.G.G.G.G.G.G.G.G.G.G.",
"G.G.G.G.G.G.G.G.G.G.G.G.G.G.G.G.G.G.G.D.Z.!.F p & T | N.S.G.G.G.G.G.G.G.G.G.G.G.G.G.G.G.G.G.G.G.",
"G.G.G.G.G.G.G.G.G.G.G.G.G.G.G.G.G.G.G.D.C.O.7 < % - G n.F.G.G.G.G.G.G.G.G.G.G.G.G.G.G.G.G.G.G.G.",
"G.G.G.G.G.G.G.G.G.G.G.G.G.G.G.G.G.G.G.K./.`.i & * & Q (.5.A.D.G.G.G.G.G.G.G.G.G.G.G.G.G.G.G.G.G.",
"G.G.G.G.G.G.G.G.G.G.G.G.G.G.G.G.G.D.D.0.r 2 & > , & < X ).l.F.G.G.G.G.G.G.G.G.G.G.G.G.G.G.G.G.G.",
"G.G.G.G.G.G.G.G.G.G.C.B.H.H.H.H.H.B.S.9.9 # > > > , & @ `.x.B.H.H.H.H.H.B.v.D.G.G.G.G.G.G.G.G.G.",
"G.G.G.G.G.G.G.G.G.n.X.] D ` ' ' ' ' _ ~ @ > , , , , > > [ ) ( ' ' ' ' m Z d s.G.G.G.G.G.G.G.G.G.",
"G.G.G.G.G.G.G.G.G.J.&.P I 4 * * * > > > > , , , , , , > > > > * > = * t L B R.G.G.G.G.G.G.G.G.G.",
"G.G.G.G.G.G.G.G.G.S.p.<.(.0 & * $ . > > , > , , , , , > > > >   * * * [.2.q.z.G.G.G.G.G.G.G.G.G.",
"G.G.G.G.G.G.G.G.G.D.C.Z.f.^ H u - > , , , , , , , , , , , , > > @ [ { o.N.A.D.G.G.G.G.G.G.G.G.G.",
"G.G.G.G.G.G.G.G.G.G.D.D.B.f.a.l 3 % > , , , , , , , , , , > : ; q 8.s.c.F.D.G.G.G.G.G.G.G.G.G.G.",
"G.G.G.G.G.G.G.G.G.G.G.G.G.F.C...C } % * , , , , , , , , , $ y / N r.C.D.G.G.G.G.G.G.G.G.G.G.G.G.",
"G.G.G.G.G.G.G.G.G.G.G.G.G.G.G.h.Y.j + & , , , , , , , , , @ U Q.y.A.G.G.G.G.G.G.G.G.G.G.G.G.G.G.",
"G.G.G.G.G.G.G.G.G.G.G.G.G.G.G.B.P.].@ & , , , , , , , , , 4 P 1.B.D.G.G.G.G.G.G.G.G.G.G.G.G.G.G.",
"G.G.G.G.G.G.G.G.G.G.G.G.G.G.G.B.7.l # : , , , , , , , , , 4 K +.L.F.G.G.G.G.G.G.G.G.G.G.G.G.G.G.",
"G.G.G.G.G.G.G.G.G.G.G.G.G.G.G.k.V 6 : > , , , , , , , , , : 5 J W.S.G.G.G.G.G.G.G.G.G.G.G.G.G.G.",
"G.G.G.G.G.G.G.G.G.G.G.G.G.G.D.j.R : * > , > > > > > > , , * > ; @.Z.D.G.G.G.G.G.G.G.G.G.G.G.G.G.",
"G.G.G.G.G.G.G.G.G.G.G.G.G.D.x.R.E > > , > & + # # # < > > , > > >.u.C.D.G.G.G.G.G.G.G.G.G.G.G.G.",
"G.G.G.G.G.G.G.G.G.G.G.G.D.A.8.S a > - ; 1 U c x l f b + 1 : > & W  .C.C.G.G.G.G.G.G.G.G.G.G.G.G.",
"G.G.G.G.G.G.G.G.G.G.G.G.D.A.~.w 1 > < 4 3 k i.I.U.j.#.O 3 # & ; 4 h A.C.G.G.G.G.G.G.G.G.G.G.G.G.",
"G.G.G.G.G.G.G.G.G.G.G.D.S.6._.7 1 % ! h h %.x.S.S.F.w.g s M o < # n E.k.F.G.G.G.G.G.G.G.G.G.G.G.",
"G.G.G.G.G.G.G.G.G.G.G.F.M.:.& + & < | b.S.F.D.G.G.D.D.S.F.3.8 < % + b d.S.G.G.G.G.G.G.G.G.G.G.G.",
"G.G.G.G.G.G.G.G.G.G.G.F.B.-.& c ;.:.9.B.S.F.G.G.G.G.D.S.D.e.,.>...e v g.S.G.G.G.G.G.G.G.G.G.G.G.",
"G.G.G.G.G.G.G.G.G.G.G.D.A.^.A /.n.N.Z.G.G.G.G.G.G.G.G.G.G.F.M.B.e.z '.P.C.G.G.G.G.G.G.G.G.G.G.G.",
"G.G.G.G.G.G.G.G.G.G.G.G.D.A.m.Z.D.D.D.G.G.G.G.G.G.G.G.G.G.G.D.D.D.V.N.F.G.G.G.G.G.G.G.G.G.G.G.G.",
"G.G.G.G.G.G.G.G.G.G.G.G.G.D.S.D.G.G.G.G.G.G.G.G.G.G.G.G.G.G.G.G.G.S.F.G.G.G.G.G.G.G.G.G.G.G.G.G.",
"G.G.G.G.G.G.G.G.G.G.G.G.G.G.G.G.G.G.G.G.G.G.G.G.G.G.G.G.G.G.G.G.G.G.G.G.G.G.G.G.G.G.G.G.G.G.G.G.",
"G.G.G.G.G.G.G.G.G.G.G.G.G.G.G.G.G.G.G.G.G.G.G.G.G.G.G.G.G.G.G.G.G.G.G.G.G.G.G.G.G.G.G.G.G.G.G.G.",
"G.G.G.G.G.G.G.G.G.G.G.G.G.G.G.G.G.G.G.G.G.G.G.G.G.G.G.G.G.G.G.G.G.G.G.G.G.G.G.G.G.G.G.G.G.G.G.G.",
"G.G.G.G.G.G.G.G.G.G.G.G.G.G.G.G.G.G.G.G.G.G.G.G.G.G.G.G.G.G.G.G.G.G.G.G.G.G.G.G.G.G.G.G.G.G.G.G.",
"G.G.G.G.G.G.G.G.G.G.G.G.G.G.G.G.G.G.G.G.G.G.G.G.G.G.G.G.G.G.G.G.G.G.G.G.G.G.G.G.G.G.G.G.G.G.G.G.",
"G.G.G.G.G.G.G.G.G.G.G.G.G.G.G.G.G.G.G.G.G.G.G.G.G.G.G.G.G.G.G.G.G.G.G.G.G.G.G.G.G.G.G.G.G.G.G.G.",
"G.G.G.G.G.G.G.G.G.G.G.G.G.G.G.G.G.G.G.G.G.G.G.G.G.G.G.G.G.G.G.G.G.G.G.G.G.G.G.G.G.G.G.G.G.G.G.G.",
"G.G.G.G.G.G.G.G.G.G.G.G.G.G.G.G.G.G.G.G.G.G.G.G.G.G.G.G.G.G.G.G.G.G.G.G.G.G.G.G.G.G.G.G.G.G.G.G.",
"G.G.G.G.G.G.G.G.G.G.G.G.G.G.G.G.G.G.G.G.G.G.G.G.G.G.G.G.G.G.G.G.G.G.G.G.G.G.G.G.G.G.G.G.G.G.G.G."
};
