/* XPM */
static char *result[] = {
/* columns rows colors chars-per-pixel */
"48 48 191 2 ",
"   c #F6C92E",
".  c #F6C92F",
"X  c #FBC92A",
"o  c #FAC92B",
"O  c #FBC92B",
"+  c #FDC928",
"@  c #FCC929",
"#  c #FDC929",
"$  c #FEC928",
"%  c #FEC929",
"&  c #FDCA28",
"*  c #FDCA29",
"=  c #FECA28",
"-  c #FFCA28",
";  c #FECA29",
":  c #FCC92A",
">  c #FBC92C",
",  c #EFC835",
"<  c #EDC836",
"1  c #E7C73B",
"2  c #E3C63F",
"3  c #E5C63D",
"4  c #E5C73D",
"5  c #E6C63C",
"6  c #E4C63E",
"7  c #EBC738",
"8  c #EAC739",
"9  c #E8C73A",
"0  c #E9C73A",
"q  c #E8C73B",
"w  c #F3C831",
"e  c #F2C833",
"r  c #F4C830",
"t  c #F4C831",
"y  c #F0C834",
"u  c #9BBE7B",
"i  c #9FBE78",
"p  c #9DBE7A",
"a  c #9BBE7C",
"s  c #99BE7E",
"d  c #A6BF73",
"f  c #A2BF75",
"g  c #A2BF76",
"h  c #A4BF74",
"j  c #BFC25D",
"k  c #AFC06A",
"l  c #ADC06D",
"z  c #AEC06C",
"x  c #B4C165",
"c  c #B7C164",
"v  c #B7C264",
"b  c #B4C167",
"n  c #BBC261",
"m  c #B9C162",
"M  c #B2C068",
"N  c #A8C071",
"B  c #DBC545",
"V  c #DBC645",
"C  c #DCC545",
"Z  c #DCC644",
"A  c #D7C548",
"S  c #D7C549",
"D  c #D5C54A",
"F  c #D4C44B",
"G  c #D5C54B",
"H  c #D6C54A",
"J  c #D3C54C",
"K  c #D2C54D",
"L  c #D3C54D",
"P  c #D1C54E",
"I  c #D0C44F",
"U  c #D4C54C",
"Y  c #C7C357",
"T  c #CFC450",
"R  c #CCC452",
"E  c #C9C355",
"W  c #C2C35B",
"Q  c #C4C359",
"!  c #E0C641",
"~  c #76BA9B",
"^  c #73B99D",
"/  c #73BA9E",
"(  c #74BA9C",
")  c #79BA98",
"_  c #5DB7AF",
"`  c #4BB5BF",
"'  c #4DB5BD",
"]  c #4CB5BE",
"[  c #57B7B5",
"{  c #55B6B6",
"}  c #55B6B7",
"|  c #55B7B7",
" . c #56B6B6",
".. c #59B7B3",
"X. c #5BB7B2",
"o. c #5CB7B1",
"O. c #51B6BA",
"+. c #6FB9A0",
"@. c #6DB9A2",
"#. c #6BB9A4",
"$. c #6AB8A5",
"%. c #60B7AD",
"&. c #63B8AA",
"*. c #63B8AB",
"=. c #61B8AC",
"-. c #60B8AD",
";. c #62B8AC",
":. c #3DB4CB",
">. c #3EB4CA",
",. c #3BB3CC",
"<. c #38B3CF",
"1. c #2FB2D7",
"2. c #27B1DD",
"3. c #25B1DF",
"4. c #27B1DE",
"5. c #2BB1DA",
"6. c #2CB2D9",
"7. c #2EB2D8",
"8. c #28B1DC",
"9. c #36B3D1",
"0. c #35B3D2",
"q. c #30B2D5",
"w. c #31B2D5",
"e. c #30B2D6",
"r. c #12AFEF",
"t. c #14AFED",
"y. c #16AFEC",
"u. c #14AFEE",
"i. c #1BAFE8",
"p. c #18AFEA",
"a. c #1FB0E5",
"s. c #1DB0E6",
"d. c #1AB0E8",
"f. c #0DAEF3",
"g. c #0FAEF2",
"h. c #0AAEF5",
"j. c #0BAEF5",
"k. c #08ADF7",
"l. c #0AADF6",
"z. c #09AEF6",
"x. c #09AEF7",
"c. c #0AAEF6",
"v. c #0CAEF4",
"b. c #07ADF8",
"n. c #06ADF9",
"m. c #07ADF9",
"M. c #06AEF9",
"N. c #04ADFA",
"B. c #05ADFA",
"V. c #04ADFB",
"C. c #06ADFA",
"Z. c #01ADFD",
"A. c #02ADFC",
"S. c #03ADFC",
"D. c #02ADFD",
"F. c #00ADFE",
"G. c #01ADFE",
"H. c #00ADFF",
"J. c #08ADF8",
"K. c #11AEF0",
"L. c #11AFF0",
"P. c #10AEF1",
"I. c #23B1E0",
"U. c #22B1E1",
"Y. c #21B0E3",
"T. c #24B1E0",
"R. c #47B5C3",
"E. c #41B4C7",
"W. c #42B4C6",
"Q. c #43B4C6",
"!. c #42B4C7",
"~. c #45B4C4",
"^. c #44B4C5",
"/. c #49B5C0",
"(. c #48B5C1",
"). c #49B5C1",
"_. c #41B4C8",
"`. c #8FBD86",
"'. c #85BC8E",
"]. c #8BBC89",
"[. c #89BC8A",
"{. c #88BC8B",
"}. c #89BC8B",
"|. c #8ABC8A",
" X c #8DBD88",
".X c #93BD82",
"XX c #92BD83",
"oX c #90BD84",
"OX c #91BD84",
"+X c #81BB91",
"@X c #80BB92",
/* pixels */
"H.H.H.H.H.H.H.H.H.H.H.H.H.H.H.H.H.H.H.H.H.H.H.H.H.H.H.H.H.H.H.H.H.H.H.H.H.H.H.H.H.H.H.H.H.H.H.H.",
"H.H.H.H.H.H.H.H.H.H.H.H.H.H.H.H.H.H.H.H.H.H.H.H.H.H.H.H.H.H.H.H.H.H.H.H.H.H.H.H.H.H.H.H.H.H.H.H.",
"H.H.H.H.H.H.H.H.H.H.H.H.H.H.H.H.H.H.H.H.H.H.H.H.H.H.H.H.H.H.H.H.H.H.H.H.H.H.H.H.H.H.H.H.H.H.H.H.",
"H.H.H.H.H.H.H.H.H.H.H.H.H.H.H.H.H.H.H.H.H.H.H.H.H.H.H.H.H.H.H.H.H.H.H.H.H.H.H.H.H.H.H.H.H.H.H.H.",
"H.H.H.H.H.H.H.H.H.H.H.H.H.H.H.H.H.H.H.H.H.H.H.H.H.H.H.H.H.H.H.H.H.H.H.H.H.H.H.H.H.H.H.H.H.H.H.H.",
"H.H.H.H.H.H.H.H.H.H.b.a.F.H.H.H.H.H.H.H.H.H.H.H.H.H.H.H.H.H.H.H.H.H.H.j.i.H.H.H.H.H.H.H.H.H.H.H.",
"H.H.H.H.H.H.H.H.H.F.E.G h.H.H.H.H.H.H.H.H.H.H.H.H.H.H.H.H.H.H.H.H.H.F...j J.H.H.H.H.H.H.H.H.H.H.",
"H.H.H.H.H.H.H.H.H.m.I X #.Z.H.H.H.H.H.H.H.H.H.H.H.H.H.H.H.H.H.H.H.H.n.! X ;.F.H.H.H.H.H.H.H.H.H.",
"H.H.H.H.H.G.G.G.Z.{.O $ r T.G.G.G.F.H.H.H.H.H.H.H.H.H.H.H.H.G.G.G.G.OX# $ t t.G.G.G.F.H.H.H.H.H.",
"H.H.H.H.H.{.V 9 9 r - - = 7 9 9 I e.H.H.H.H.H.H.H.H.H.H.H.H.OXZ 9 9 . - - = 8 9 9 T I.H.H.H.H.H.",
"H.H.H.H.H.M.+.! = - - - - - @ R s.D.H.H.H.H.H.H.H.H.H.H.H.H.n.~ 2 = - - - - - X E P.Z.H.H.H.H.H.",
"H.H.H.H.H.H.F.(.B = - - - # z j.H.H.H.H.H.H.H.H.H.H.H.H.H.H.H.F.' ! - - - - + N F.H.H.H.H.H.H.H.",
"H.H.H.H.H.H.H.m.b = - - - : O.F.H.H.H.H.H.H.H.H.H.H.H.H.H.H.H.H.x.j - - - - # !.H.H.H.H.H.H.H.H.",
"H.H.H.H.H.H.H.e.X - = ; = $ I Z.H.H.H.H.H.H.H.H.H.H.H.H.H.H.H.F./.: - = ; = = c H.H.H.H.H.H.H.H.",
"H.H.H.H.H.H.Z.d = * f OXP & w ).F.H.H.H.H.H.H.H.H.H.H.H.H.H.H.G.v = * u OXD & < _.H.H.H.H.H.H.H.",
"H.H.H.H.H.F.5.0 3 =.L.G.,.+X@ l V.H.H.H.H.H.H.H.H.H.H.H.H.H.F.<., H %.c.F.>.oX: p F.H.H.H.H.H.H.",
"H.H.H.H.H.F.0.( d.F.H.H.F.m.Y.i B.H.H.H.H.H.H.H.H.H.H.H.H.H.F.~.@.p.F.H.H.F.c.U.a F.H.H.H.H.H.H.",
"H.H.H.H.H.H.F.G.H.H.H.H.H.H.H.Z.H.H.H.H.u.D.H.H.H.H.H.H.H.H.H.F.G.H.H.H.H.H.H.H.Z.H.H.H.H.H.H.H.",
"H.H.H.H.H.H.H.H.H.H.H.H.H.H.H.H.H.H.H.D.m Q.H.H.H.H.H.H.H.H.H.H.H.H.H.H.H.H.H.H.H.H.H.H.H.H.H.H.",
"H.H.H.H.H.H.H.H.H.H.H.H.H.H.H.H.H.8... X= 4 X.{ D.H.H.H.H.H.H.H.H.H.H.H.H.H.H.H.H.H.H.H.H.H.H.H.",
"H.H.H.H.H.H.H.H.H.H.H.H.H.H.H.H.H.H.@X  - = A 2.H.H.H.H.H.H.H.H.H.H.H.H.H.H.H.H.H.H.H.H.H.H.H.H.",
"H.H.H.H.H.H.H.H.H.H.H.H.H.H.H.H.H.H.f.! - = ^ H.H.H.H.H.H.H.H.H.H.H.H.H.H.H.H.H.H.H.H.H.H.H.H.H.",
"H.H.H.H.H.H.H.H.H.H.H.H.H.H.H.H.H.H...r `.W L j.H.H.H.H.H.H.H.H.H.H.H.H.H.H.H.H.H.H.H.H.H.H.H.H.",
"H.H.H.H.H.H.H.H.H.H.H.H.H.H.H.H.H.F.| 6.G.k.} 3.H.H.H.H.H.H.H.H.H.H.H.H.H.H.H.H.H.H.H.H.H.H.H.H.",
"H.H.H.H.H.H.H.H.H.H.H.H.H.H.H.H.H.H.H.H.H.H.H.H.H.H.H.H.H.H.H.H.H.H.H.H.H.H.H.H.H.H.H.H.H.H.H.H.",
"H.H.H.H.H.H.H.H.H.H.H.H.H.H.H.H.H.H.H.H.H.H.H.H.H.H.H.H.H.H.H.H.H.H.H.H.H.H.H.H.H.H.H.H.H.H.H.H.",
"H.H.H.H.H.H.H.H.H.H.H.H.H.H.H.H.H.H.H.H.H.H.H.H.H.H.H.H.H.H.H.H.H.H.H.H.H.H.H.H.H.H.H.H.H.H.H.H.",
"H.H.H.H.H.H.H.H.H.H.H.H.H.H.H.H.H.H.H.H.H.H.H.H.H.H.H.H.H.H.H.H.H.H.H.H.H.H.H.H.H.H.H.H.H.H.H.H.",
"H.H.H.H.H.H.H.H.H.H.H.H.H.H.H.H.H.H.H.H.H.H.H.H.H.H.H.H.H.H.H.H.H.H.H.H.H.H.H.H.H.H.H.H.H.H.H.H.",
"H.H.H.H.H.H.H.H.H.H.H.H.H.H.H.H.H.H.H.H.H.H.H.H.H.H.H.H.H.H.H.H.H.H.H.H.H.H.H.H.H.H.H.H.H.H.H.H.",
"H.H.H.H.H.H.H.H.H.H.v.q.F.H.H.H.H.H.H.H.H.H.H.H.H.H.H.H.H.H.H.H.H.H.H.r.5.H.H.H.H.H.H.H.H.H.H.H.",
"H.H.H.H.H.H.H.H.H.F.` C P.H.H.H.H.H.H.H.H.H.H.H.H.H.H.H.H.H.H.H.H.H.F.*.Y v.H.H.H.H.H.H.H.H.H.H.",
"H.H.H.H.H.H.H.H.H.l.S # / A.H.H.H.H.H.H.H.H.H.H.H.H.H.H.H.H.H.H.H.H.z.1 + $.G.H.H.H.H.H.H.H.H.H.",
"H.H.H.H.H.Z.D.D.D.XX$ $ # 4.D.D.D.F.H.H.H.H.H.H.H.H.H.H.H.H.Z.D.D.Z.u $ $ = y.D.D.D.F.H.H.H.H.H.",
"H.H.H.H.H.|.5 O o # - - = O o > U q.H.H.H.H.H.H.H.H.H.H.H.H..Xq O o @ - - - o O > K I.H.H.H.H.H.",
"H.H.H.H.H.F._ J = - - - - - X x r.F.H.H.H.H.H.H.H.H.H.H.H.H.F.&.H = - - - - - o k C.H.H.H.H.H.H.",
"H.H.H.H.H.H.F.W.S = - - - # h c.H.H.H.H.H.H.H.H.H.H.H.H.H.H.H.F.R.Z - - - - + p F.H.H.H.H.H.H.H.",
"H.H.H.H.H.H.H.c.n = - - - @ o.F.H.H.H.H.H.H.H.H.H.H.H.H.H.H.H.H.g.Q - - - - # ] H.H.H.H.H.H.H.H.",
"H.H.H.H.H.H.F.w.% - # * $ = U G.H.H.H.H.H.H.H.H.H.H.H.H.H.H.H.F.` $ - # # $ = n F.H.H.H.H.H.H.H.",
"H.H.H.H.H.H.G.z = * s '.R = . ' F.H.H.H.H.H.H.H.H.H.H.H.H.H.H.G.j = & OX'.P = e ^.F.H.H.H.H.H.H.",
"H.H.H.H.H.F.7.7 6 [ P.G.9.) # M N.H.H.H.H.H.H.H.H.H.H.H.H.H.F.,.y F  .c.G.<.[.# g F.H.H.H.H.H.H.",
"H.H.H.H.H.F.1.-.j.H.H.H.H.S.g.].N.H.H.H.H.H.H.H.H.H.H.H.H.H.F.:...c.H.H.H.H.V.K.}.F.H.H.H.H.H.H.",
"H.H.H.H.H.H.F.G.H.H.H.H.H.H.H.Z.H.H.H.H.H.H.H.H.H.H.H.H.H.H.H.F.G.H.H.H.H.H.H.H.D.H.H.H.H.H.H.H.",
"H.H.H.H.H.H.H.H.H.H.H.H.H.H.H.H.H.H.H.H.H.H.H.H.H.H.H.H.H.H.H.H.H.H.H.H.H.H.H.H.H.H.H.H.H.H.H.H.",
"H.H.H.H.H.H.H.H.H.H.H.H.H.H.H.H.H.H.H.H.H.H.H.H.H.H.H.H.H.H.H.H.H.H.H.H.H.H.H.H.H.H.H.H.H.H.H.H.",
"H.H.H.H.H.H.H.H.H.H.H.H.H.H.H.H.H.H.H.H.H.H.H.H.H.H.H.H.H.H.H.H.H.H.H.H.H.H.H.H.H.H.H.H.H.H.H.H.",
"H.H.H.H.H.H.H.H.H.H.H.H.H.H.H.H.H.H.H.H.H.H.H.H.H.H.H.H.H.H.H.H.H.H.H.H.H.H.H.H.H.H.H.H.H.H.H.H.",
"H.H.H.H.H.H.H.H.H.H.H.H.H.H.H.H.H.H.H.H.H.H.H.H.H.H.H.H.H.H.H.H.H.H.H.H.H.H.H.H.H.H.H.H.H.H.H.H."
};
