/* XPM */
static char *result[] = {
/* columns rows colors chars-per-pixel */
"48 48 144 2 ",
"   c #2F312F",
".  c #2D3739",
"X  c #353634",
"o  c #3A3D3C",
"O  c #3F403D",
"+  c #41413F",
"@  c #364145",
"#  c #394041",
"$  c #37454A",
"%  c #3B4C51",
"&  c #385059",
"*  c #245265",
"=  c #215268",
"-  c #2D5768",
";  c #2C5A6E",
":  c #315361",
">  c #3D5A64",
",  c #285C73",
"<  c #3C606D",
"1  c #24607B",
"2  c #386574",
"3  c #34677B",
"4  c #444542",
"5  c #464945",
"6  c #494B46",
"7  c #474E4D",
"8  c #494C4A",
"9  c #45504E",
"0  c #4F504D",
"q  c #51514E",
"w  c #445152",
"e  c #41555A",
"r  c #545553",
"t  c #595957",
"y  c #5A5B5A",
"u  c #7F5B55",
"i  c #5C727B",
"p  c #656665",
"a  c #666768",
"s  c #666868",
"d  c #616B71",
"f  c #6E6F70",
"g  c #6E7273",
"h  c #6B7579",
"j  c #727374",
"k  c #7D7E7E",
"l  c #1C6280",
"z  c #1D6788",
"x  c #176F96",
"c  c #1A6D93",
"v  c #1C7197",
"b  c #2C6B86",
"n  c #256988",
"m  c #336A80",
"M  c #257A9E",
"N  c #297A9D",
"B  c #1A7BA8",
"V  c #237DA5",
"C  c #287CA1",
"Z  c #537585",
"A  c #587481",
"S  c #427F9A",
"D  c #1587BB",
"F  c #1F8ABA",
"G  c #2E80A5",
"H  c #2283AF",
"J  c #3782A4",
"K  c #3C84A6",
"L  c #3C8EB3",
"P  c #328FBA",
"I  c #2D91BF",
"U  c #3A90B8",
"Y  c #7F8081",
"T  c #4084A4",
"R  c #4885A0",
"E  c #408BAE",
"W  c #138CC3",
"Q  c #118EC8",
"!  c #0B90CD",
"~  c #1E94CC",
"^  c #0598DE",
"/  c #0D9ADB",
"(  c #1296D3",
")  c #1F9CD6",
"_  c #119AD9",
"`  c #189FDE",
"'  c #2694C7",
"]  c #2393C8",
"[  c #2896CA",
"{  c #219CD5",
"}  c #1DA0DD",
"|  c #0C9EE3",
" . c #05A3ED",
".. c #0CA4EB",
"X. c #14A3E6",
"o. c #18A5E7",
"O. c #15A5E9",
"+. c #04A6F3",
"@. c #04A8F5",
"#. c #00ADFF",
"$. c #14ABF1",
"%. c #1BAFF5",
"&. c #0CB1FF",
"*. c #13B3FE",
"=. c #1BB5FE",
"-. c #2EAFED",
";. c #26B9FF",
":. c #2ABAFD",
">. c #32BCFD",
",. c #39BEFE",
"<. c #51A1C5",
"1. c #6BB5D9",
"2. c #73B2D0",
"3. c #41BFFB",
"4. c #42C1FE",
"5. c #4FC5FD",
"6. c #51C6FE",
"7. c #59C5F9",
"8. c #56C8FD",
"9. c #5CC9FD",
"0. c #60CBFE",
"q. c #70CFFC",
"w. c #76D1FC",
"e. c #808182",
"r. c #909DA2",
"t. c #ABACAB",
"y. c #9EBECC",
"u. c #88B9D0",
"i. c #9CC6DA",
"p. c #AEC4CE",
"a. c #85D4FA",
"s. c #8CD6FA",
"d. c #8FD8FB",
"f. c #92DAFC",
"g. c #9EDEFA",
"h. c #A4E0FB",
"j. c #BEE2F3",
"k. c #BDE7FB",
"l. c #C3C4C4",
"z. c #C3E9FB",
"x. c #CCEBFB",
"c. c #D3EEFA",
"v. c #DDF0FA",
"b. c #EDEEED",
/* pixels */
"#.#.#.#.#.#.#.#.#.#.#.#.#.#.#.#.#.#.#.#.#.#.#.#.#.#.#.#.#.#.#.#.#.#.#.#.#.#.#.#.#.#.#.#.#.#.#.#.",
"#.#.#.#.#.#.#.#.#.#.#.#.#.#.#.#.#.#.#.#.#.#.#.#.#.#.#.#.#.#.#.#.#.#.#.#.#.#.#.#.#.#.#.#.#.#.#.#.",
"#.#.#.#.#.#.#.#.#.#.#.#.#.#.#.#.#.#.#.#.#.#.#.#.#.#.#.#.#.#.#.#.#.#.#.#.#.#.#.#.#.#.#.#.#.#.#.#.",
"#.#.#.#.#.#.#.#.#.#.#.#.#.#.#.#.#.#.#.#.#.#.#.#.#.#.#.#.#.#.#.#.#.#.#.#.#.#.#.#.#.#.#.#.#.#.#.#.",
"#.#.#.#.#.#.#.#.#.#.#.#.#.#.#.#.#.#.#.#.#.#.#.#.#.#.#.#.#.#.#.#.#.#.#.#.#.#.#.#.#.#.#.#.#.#.#.#.",
"#.#.#.#.#.#.#.#.#.#.#.#.#.#.#.#.#.#.#.#.#.#.#.#.#.#.#.#.#.#.#.#.#.#.#.#.#.#.#.#.#.#.#.#.#.#.#.#.",
"#.#.#.#.#.#.#.#.#.#.#.#.#.#.#.#.#.#.#.#.#.#.#.#.#.#.#.#.#.#.#.#.#.#.#.#.#.#.#.#.#.#.#.#.#.#.#.#.",
"#.#.#.#.#.#.#.#.#.#.#.#.#.#.#.#.#.#.#.#.#.#.#.#.#.#.#.#.#.#.#.#.#.#.#.#.#.#.#.#.#.#.#.#.#.#.#.#.",
"#.#.#.#.#.#.#.#.#.#.#.#.#.#.#.#.#.#.#.#.#.#.#.#.#.#.#.#.#.#.#.#.#.#.#.#.#.#.#.#.#.#.#.#.#.#.#.#.",
"#.#.#.#.a.c.g.5.&.#.#.C ..#.#.#.#.#.#.#.#.#.#.#.#.#.#.#.#.#.#.#.#.#.#.#.#.#.#.#.#.#.#.#.#.#.#.#.",
"#.#.#.#.#.4.k.v.f.#.o.8 _ #.#.#.#.#.#.#.#.#.#.#.#.#.#.#.#.#.#.#.#.#.#.#.#.#.#.#.#.#.#.#.#.#.#.#.",
"#.#.#.#.#.#.#.>.>.-.i.y.3.#.#.#.#.#.#.#.#.#.#.#.#.#.#.#.#.#.#.#.#.#.#.#.#.#.#.#.#.#.#.#.#.#.#.#.",
"#.#.#.#.#.#.#.#.#.$.t.w.z.x.w.&.#.#.#.#.#.#.#.#.#.#.#.#.#.#.#.#.#.#.#.#.#.#.#.#.#.#.#.#.#.#.#.#.",
"#.#.#.#.#.#.#.#.#.M w @.7.z.v.c.9.#.#.#.;.q.6.=.#.#.#.#.#.#.#.#.#.#.#.#.#.#.#.#.#.#.#.#.#.#.#.#.",
"#.#.#.#.#.#.#.#.@.e b #.@.#.4.q.d.4.#.#.#.=.9.6.&.#.#.= c #.#.#.#.#.#.#.#.#.#.#.#.#.#.#.#.#.#.#.",
"#.#.#.#.#.#.#.O.F 6 ( #.#.#.#.#.#.#.#.#.#.#.#.#.#.#.%.r.^ #.#.#.#.#.#.#.#.#.#.#.#.#.#.#.#.#.#.#.",
"#.#.#.#.#.#.} j f p X.#.#.#.#.#.#.#.#.#.#.#.#.#.#.#.1.u.#.#.#.#.#.#.#.#.#.#.#.#.#.#.#.#.#.#.#.#.",
"#.#.#.#.#.#.U k k j g ` #.#.#.#.#.#.#.#.#.#.#.#.#. .@ ~ #.#.#.#.#.#.#.#.#.#.#.#.#.#.#.#.#.#.#.#.",
"#.#.#.#.#.#.L Y k j j X.#.#.#.#.#.#.#.#.#.#.#. . .c   +.#.#.#.>.0.,.#.#.#.#.#.#.#.#.#.#.#.#.#.#.",
"#.#.#.#.#.#.L k j j g s d Z K ' ..@.N > & 2 G b o X z #.#.#.#.#.#.=.#.#.#.#.#.#.#.#.#.#.#.#.#.#.",
"#.#.#.#.#.#.{ j j h P J A p s a s s t r 5 6 6 6 5 O ! #.#.#.#.#.*.:.&.#.#.#.#.#.#.#.#.#.#.#.#.#.",
"#.#.#.#.#.#.#.[ L } #.#.#.+.] K s s s s p y q 6 6 6 > _ #.#.#.#.&.d.z.f.,.#.#./ N #.#.#.#.#.#.#.",
"#.#.#.#.#.#.#.#.#.#.#.#.#.#.#.#.F 0 t p s p p p r 6 6 8 _ #.#.#.#.#.*.a.z.a.=.S m #.#.#.#.#.#.#.",
"#.#.#.#.#.#.#.#.#.#.#.#.#.#.#.#.3 5 6 5 q p s s s p t 6 > #.#.#.#.#.#.#.,.a.j.p.$.:.#.#.#.#.#.#.",
"#.#.#.#.#.#.#.#.#.#.#.#.#.#.#.#.7 6 6 6 5 4 8 t s s s a t _ #.#.#.#.#.#.#.#.<.2.&.h.k.5.#.#.#.#.",
"#.#.#.#.#.#.#.#.#.#.#.#.#.#.#. .6 6 6 6 6 6 5 4 5 y s s a i ) #.#.#.#.#.#.@.7 M #.s.x.c.h.:.#.#.",
"#.#.#.#.#.#.#.#.#.#.#.#.#.#.#./ 6 6 6 4 X X O 5 6 u 5 t s s p T #.#.#.#.#.H 6  .#.#.;.8.f.z.*.#.",
"#.#.#.#.#.#.#.#.#.#.#.#.#.#.#...6 6 6 o k l.O + 6 + + + G Z s s i O.@.U { e 3 #.#.#.#.#.#.#.#.#.",
"#.#.#.#.#.#.#.#.#.#.#.#.#.#.W $ 5 8 6 X t.b.r O 6 6 + & @.#.I d p s R j j j J &.#.#.#.#.#.#.#.#.",
"#.#.#.#.#.#.#.#.#.#.#.#.#.Q # B ( w 6 + X X X 6 6 6 + W #.#.#...R s g g j e.j [ #.#.#.#.#.#.#.#.",
"#.#.#.#.#.#.#.#.#.#.#.#. .$ B #.#.| 3 6 6 5 6 6 6 6 M #.#.#.#.#.#.[ j j Y e.R @.#.#.#.#.#.#.#.#.",
"#.#.#.#.#.#.#.#.#.#.#.#.n ; #.#.#.#.#./ V > 9 w < % #.#.#.#.#.#.#.@.h j Y h ..#.#.#.#.#.#.#.#.#.",
"#.#.#.#.#.#.#.#.#.#.#.@.O ,  .#.#.#.#.#.#.#.#.#.@.O +.#.#.#.#.#.#.#.E g R X.@.#.#.#.#.#.#.#.#.#.",
"#.#.@.#.#.#.#.#.#.#.#.D o   x #.#.#.#.#.#.#.#.#.#.O / #.#.#.#.#.#.#.#.#.#.#.#.#.#.#.#.#.#.#.#.#.",
"#.#.#.#.#.#.#.#.#.#.#.v - /  .#.#.#.#.#.#.#.#.#.#.O X.#.#.#.#.#.#.#.#.#.#.#.#.#.#.#.#.#.#.#.#.#.",
"#.#.#.#.#.#.#.#.#.#.#.n ; #.#.#.#.#.#.#.#.#.#.#./ o #.#.#.#.#.#.#.#.#.#.#.#.#.#.#.#.#.#.#.#.#.#.",
"#.#.#.#.#.#.#.#.#.#.#.x l #.#.#.#.#.#.#.#.#./ * ; - #.#.#.#.#.#.#.#.#.#.#.#.#.#.#.#.#.#.#.#.#.#.",
"#.#.#.#.#.#.#.#.#.#.#.#.#.#.#.#.#.#.#.#.#.#.! . o D #.#.#.#.#.#.#.#.#.#.#.#.#.#.#.#.#.#.#.#.#.#.",
"#.#.#.#.#.#.#.#.#.#.#.#.#.#.#.#.#.#.#.#.#.#.#.; : @.#.#.#.#.#.#.#.#.#.#.#.#.#.#.#.#.#.#.#.#.#.#.",
"#.#.#.#.#.#.#.#.#.#.#.#.#.#.#.#.#.#.#.#.#.+.1 # / #.#.#.#.#.#.#.#.#.#.#.#.#.#.#.#.#.#.#.#.#.#.#.",
"#.#.#.#.#.#.#.#.#.#.#.#.#.#.#.#.#.#.#.#.#.#.= D #.#.#.#.#.#.#.#.#.#.#.#.#.#.#.#.#.#.#.#.#.#.#.#.",
"#.#.#.#.#.#.#.#.#.#.#.#.#.#.#.#.#.#.#.#.#.#.#.#.#.#.#.#.#.#.#.#.#.#.#.#.#.#.#.#.#.#.#.#.#.#.#.#.",
"#.#.#.#.#.#.#.#.#.#.#.#.#.#.#.#.#.#.#.#.#.#.#.#.#.#.#.#.#.#.#.#.#.#.#.#.#.#.#.#.#.#.#.#.#.#.#.#.",
"#.#.#.#.#.#.#.#.#.#.#.#.#.#.#.#.#.#.#.#.#.#.#.#.#.#.#.#.#.#.#.#.#.#.#.#.#.#.#.#.#.#.#.#.#.#.#.#.",
"#.#.#.#.#.#.#.#.#.#.#.#.#.#.#.#.#.#.#.#.#.#.#.#.#.#.#.#.#.#.#.#.#.#.#.#.#.#.#.#.#.#.#.#.#.#.#.#.",
"#.#.#.#.#.#.#.#.#.#.#.#.#.#.#.#.#.#.#.#.#.#.#.#.#.#.#.#.#.#.#.#.#.#.#.#.#.#.#.#.#.#.#.#.#.#.#.#.",
"#.#.#.#.#.#.#.#.#.#.#.#.#.#.#.#.#.#.#.#.#.#.#.#.#.#.#.#.#.#.#.#.#.#.#.#.#.#.#.#.#.#.#.#.#.#.#.#.",
"#.#.#.#.#.#.#.#.#.#.#.#.#.#.#.#.#.#.#.#.#.#.#.#.#.#.#.#.#.#.#.#.#.#.#.#.#.#.#.#.#.#.#.#.#.#.#.#."
};
