/* XPM */
static char *result[] = {
/* columns rows colors chars-per-pixel */
"48 48 148 2 ",
"   c #2F3333",
".  c #343533",
"X  c #3B3D3B",
"o  c #40413F",
"O  c #393F40",
"+  c #29454E",
"@  c #384245",
"#  c #374549",
"$  c #3D4648",
"%  c #2B4C5A",
"&  c #344D56",
"*  c #324F59",
"=  c #3E565E",
"-  c #22566D",
";  c #29566A",
":  c #375863",
">  c #375A68",
",  c #38606E",
"<  c #2C677F",
"1  c #356578",
"2  c #444542",
"3  c #474A46",
"4  c #494B46",
"5  c #464D4A",
"6  c #4A4C49",
"7  c #4F504E",
"8  c #445254",
"9  c #4B5658",
"0  c #41585D",
"q  c #555654",
"w  c #575857",
"e  c #5B5C5C",
"r  c #5E605E",
"t  c #4D6169",
"y  c #5F6B70",
"u  c #5C6F78",
"i  c #55717F",
"p  c #656565",
"a  c #666768",
"s  c #666869",
"d  c #6F706E",
"f  c #616C72",
"g  c #6C7477",
"h  c #65747B",
"j  c #6A767B",
"k  c #727373",
"l  c #77797A",
"z  c #7A7B7B",
"x  c #876159",
"c  c #1C6C90",
"v  c #1F749A",
"b  c #2F6D87",
"n  c #236C8D",
"m  c #2D718E",
"M  c #2B7595",
"N  c #22769C",
"B  c #277A9D",
"V  c #1877A2",
"C  c #1C7EAA",
"Z  c #237DA5",
"A  c #307EA1",
"S  c #4E7689",
"D  c #557A89",
"F  c #5A7A89",
"G  c #687A82",
"H  c #0F86BC",
"J  c #1784B6",
"K  c #1687BB",
"L  c #1B88B8",
"P  c #2081AD",
"I  c #3E84A4",
"U  c #3786AA",
"Y  c #3987AB",
"T  c #318AB3",
"R  c #3A8EB5",
"E  c #3693BE",
"W  c #43829E",
"Q  c #4E849D",
"!  c #168DC4",
"~  c #1890C6",
"^  c #1492CC",
"/  c #1995CF",
"(  c #0C94D3",
")  c #0699DD",
"_  c #0C99DA",
"`  c #1197D5",
"'  c #1D99D4",
"]  c #1A9EDB",
"[  c #2193C7",
"{  c #2796CA",
"}  c #2898CD",
"|  c #329FD3",
" . c #19A0DF",
".. c #05A3EC",
"X. c #09A5ED",
"o. c #12A3E6",
"O. c #11A4E9",
"+. c #04A6F3",
"@. c #09A7F1",
"#. c #05A8F5",
"$. c #0AAAF4",
"%. c #00ADFF",
"&. c #0AAFFD",
"*. c #11AEF8",
"=. c #09B0FF",
"-. c #10B2FE",
";. c #1BB5FE",
":. c #25A9E8",
">. c #35ABE1",
",. c #21AEF1",
"<. c #25B6FC",
"1. c #2AB7F9",
"2. c #26B9FE",
"3. c #36BDFE",
"4. c #71B7D7",
"5. c #45B2E6",
"6. c #41BDF8",
"7. c #3EC1FE",
"8. c #41C1FD",
"9. c #4BC4FE",
"0. c #54C7FD",
"q. c #5DC9FD",
"w. c #66CCFC",
"e. c #6DCEFC",
"r. c #72D0FE",
"t. c #7AD3FD",
"y. c #828383",
"u. c #98A2A5",
"i. c #A5A6A5",
"p. c #82BAD5",
"a. c #96C8DF",
"s. c #A2C6D7",
"d. c #A8C6D4",
"f. c #82D5FC",
"g. c #8BD8FD",
"h. c #91D9FC",
"j. c #9ADCFC",
"k. c #AEDFF7",
"l. c #ADE2FB",
"z. c #BEE2F5",
"x. c #B3E3FA",
"c. c #BDE7FB",
"v. c #CAEBFA",
"b. c #D4EEFA",
"n. c #D9EFFA",
"m. c #DCF1F9",
"M. c #EFEFF0",
"N. c #E5F2F9",
/* pixels */
"%.%.%.%.%.%.%.%.%.%.%.%.%.%.%.%.%.%.%.%.%.%.%.%.%.%.%.%.%.%.%.%.%.%.%.%.%.%.%.%.%.%.%.%.%.%.%.%.",
"%.%.%.%.%.%.%.%.%.%.%.%.%.%.%.%.%.%.%.%.%.%.%.%.%.%.%.%.%.%.%.%.%.%.%.%.%.%.%.%.%.%.%.%.%.%.%.%.",
"%.%.%.%.%.%.%.%.%.%.%.%.%.%.%.%.%.%.%.%.%.%.%.%.%.%.%.%.%.%.%.%.%.%.%.%.%.%.%.%.%.%.%.%.%.%.%.%.",
"%.%.%.%.%.%.%.%.%.%.%.%.%.%.%.%.%.%.%.%.%.%.%.%.%.%.%.%.%.%.%.%.%.%.%.%.%.%.%.%.%.%.%.%.%.%.%.%.",
"%.%.%.%.%.%.%.%.%.%.%.%.%.%.%.%.%.%.%.%.%.%.%.%.%.%.%.%.%.%.%.%.%.%.%.%.%.%.%.%.%.%.%.%.%.%.%.%.",
"%.%.%.%.%.%.%.%.%.%.%.%.%.%.%.%.%.%.%.%.%.%.%.%.%.%.%.%.%.%.%.%.%.%.%.%.%.%.%.%.%.%.%.%.%.%.%.%.",
"%.%.%.%.%.%.%.%.%.%.%.%.%.%.%.%.%.%.%.%.%.%.%.%.%.%.%.%.%.%.%.%.%.%.%.%.%.%.%.%.%.%.%.%.%.%.%.%.",
"%.%.%.%.%.%.%.%.%.%.%.%.%.%.%.%.%.%.%.%.%.%.%.%.%.%.%.%.%.%.%.%.%.%.%.%.%.%.%.%.%.%.%.%.%.%.%.%.",
"%.%.%.%.%.%.%.%.%.%.%.%.%.%.%.%.%.%.%.%.%.%.%.%.%.%.%.%.%.%.%.%.%.%.%.%.%.%.%.%.%.%.%.%.%.%.%.%.",
"%.%.%.%.%.%.%.%.%.%.%.%.%.%.%.%.%.%.%.%.%.%.%.%.%.%.%.%.%.%.%.%.%.%.%.#.m %.%.%.;.0.r.g.=.%.%.%.",
"%.%.%.%.%.%.%.%.%.%.%.%.%.%.%.%.%.%.%.%.%.%.%.%.%.%.%.%.%.%.%.%.%.%.%.%.8 / 6.x.n.b.l.7.%.%.%.%.",
"%.%.%.%.%.%.%.%.%.%.%.%.%.%.%.%.%.%.%.%.%.%.%.%.%.%.%.%.%.%.%.%.%.%.%.=.s.5.1.k.j.7.%.%.%.%.%.%.",
"%.%.%.%.%.%.%.%.%.%.%.%.%.%.%.%.%.%.%.%.%...+ #.%.%.%.%.r.9.%.%.8.g.l.z.k.u.@.%.%.%.%.%.%.%.%.%.",
"%.%.%.%.%.%.%.%.%.%.%.%.%.%.%.%.%.%.%.%.%.#.h :.%.%.%.2.;.%.7.l.c.f.e.;.%.3 Z %.%.%.%.%.%.%.%.%.",
"%.%.%.%.%.%.%.%.%.%.%.%.%.%.%.%.%.%.%.%.%.%.p.4.%.%.%.%.%.%.9.7.%.%.%.%.%.1 > %.%.%.%.%.%.%.%.%.",
"%.%.%.%.%.%.%.%.%.%.%.%.%.%.%.%.%.7.t.2.%.%.| t +.%.%.%.%.%.%.%.%.%.%.%.%.L 3 ` %.%.%.%.%.%.%.%.",
"%.%.%.%.%.%.%.%.%.%.%.%.%.%.%.%.q.r.7.%.%.%...  v %.%.%.%.%.%.%.%.%.%.%.%. .p g h %.%.%.%.%.%.%.",
"%.%.%.%.%.%.%.%.%.%.%.%.%.%.%.%.%.%.%.%.%.%.%.; % %.%.%.%.%.%.%.%.%.%.%.E d k y.l o.%.%.%.%.%.%.",
"%.%.%.%.%.%.%.%.%.%.%.%.%.%.%.%.%.%.%.%.%.%.N $ . P Z B P ..%.%.%.%.%.$.E k k y.z  .%.%.%.%.%.%.",
"%.%.%.%.%.%.X.~ %.%.%.%.;.q.7.%.%.%.%.%.%.#.< o 3 3 3 4 3 9 U W D f s a a k k z z o.%.%.%.%.%.%.",
"%.%.%.%.%.%.^ 4 X.8.h.v.N.l.<.%.%.%.%.%.~ 0 4 4 4 7 q r a a s s a a s s i F k k j %.%.%.%.%.%.%.",
"%.%.%.%.%.%.%.u.a.z.b.v.q.%.%.%.%.%.%.Z 3 4 4 q r a s s s s a S Y { o.%.%.%.R Q  .%.%.%.%.%.%.%.",
"%.%.%.=.w.3.,.s.d.1.;.%.%.%.%.%.%.%.` 4 7 e a a a s a e q 4 o N %.%.%.%.%.%.%.%.%.%.%.%.%.%.%.%.",
"%.-.t.m.m.e.*.>.w _ %.%.%.%.%.%.%.%.A r a a a a e 7 2 o x o @ > %.%.%.%.%.%.%.%.%.%.%.%.%.%.%.%.",
"%.h.h.w.2.%.%.%.8 M %.%.%.%.%.%.o.W s a a e 7 3 2 2 o 4 o o o 3 %.%.%.%.%.%.%.%.%.%.%.%.%.%.%.%.",
"%.%.%.%.%.%.%.%.M 8 %.%.%.%.+.I a a y e 4 4 4 4 6 o X o 4 6 4 6 #.%.%.%.%.%.%.%.%.%.%.%.%.%.%.%.",
"%.%.%.%.%.%.%.%.[ e F j { ' u a y T +.m 4 4 4 4 o 7 i.w o 4 4 4 ..#.%.%.%.%.%.%.%.%.%.%.%.%.%.%.",
"%.%.%.%.%.%.%.O.G z k k g p a U +.%.%.o.3 4 3 7 X y.M.y.X 4 4 : @ ! %.%.%.%.%.%.%.%.%.%.%.%.%.%.",
"%.%.%.%.%.%.%.&.j y.z k k W @.%.%.%.%.%.B 3 4 4 o . d . o 4 1 &.J O ^ %.%.%.%.%.%.%.%.%.%.%.%.%.",
"%.%.%.%.%.%.%.%.} l y.k k @.%.%.%.%.%.%.#., 4 4 6 o o 3 4 b #.%.%.v # #.%.%.%.%.%.%.%.%.%.%.%.%.",
"%.%.%.%.%.%.%.%.%.R l k g %.%.%.%.%.%.%.%.+.= 4 4 4 5 m _ %.%.%.%.#.* V %.%.%.%.%.%.%.%.%.%.%.%.",
"%.%.%.%.%.%.%.%.%.&.] R o.%.%.%.%.%.%.%.%.%.@ L ~ ` %.%.%.%.%.%.%..., * %.%.%.%.%.%.%.%.%.%.%.%.",
"%.%.%.%.%.%.%.%.%.%.%.%.%.%.%.%.%.%.%.%.%...X #.%.%.%.%.%.%.%.%.%.-   X +.%.%.%.%.%.%.%.%.%.%.%.",
"%.%.%.%.%.%.%.%.%.%.%.%.%.%.%.%.%.%.%.%.%...X +.%.%.%.%.%.%.%.%.%.) ( X ( %.%.%.%.%.%.%.%.%.%.%.",
"%.%.%.%.%.%.%.%.%.%.%.%.%.%.%.%.%.%.%.%.%...X X.%.%.%.%.%.%.%.%.%.%.#.X K %.%.%.%.%.%.%.%.%.%.%.",
"%.%.%.%.%.%.%.%.%.%.%.%.%.%.%.%.%.%.%.%.%.%.& n c +.%.%.%.%.%.%.%.%.) + H %.%.%.%.%.%.%.%.%.%.%.",
"%.%.%.%.%.%.%.%.%.%.%.%.%.%.%.%.%.%.%.%.%.%.n X   ( %.%.%.%.%.%.%.%.%.%.%.%.%.%.%.%.%.%.%.%.%.%.",
"%.%.%.%.%.%.%.%.%.%.%.%.%.%.%.%.%.%.%.%.%.%.o.@ C %.%.%.%.%.%.%.%.%.%.%.%.%.%.%.%.%.%.%.%.%.%.%.",
"%.%.%.%.%.%.%.%.%.%.%.%.%.%.%.%.%.%.%.%.%.%.%.v @ ( %.%.%.%.%.%.%.%.%.%.%.%.%.%.%.%.%.%.%.%.%.%.",
"%.%.%.%.%.%.%.%.%.%.%.%.%.%.%.%.%.%.%.%.%.%.%.#.% - %.%.%.%.%.%.%.%.%.%.%.%.%.%.%.%.%.%.%.%.%.%.",
"%.%.%.%.%.%.%.%.%.%.%.%.%.%.%.%.%.%.%.%.%.%.%.%.+.%.%.%.%.%.%.%.%.%.%.%.%.%.%.%.%.%.%.%.%.%.%.%.",
"%.%.%.%.%.%.%.%.%.%.%.%.%.%.%.%.%.%.%.%.%.%.%.%.%.%.%.%.%.%.%.%.%.%.%.%.%.%.%.%.%.%.%.%.%.%.%.%.",
"%.%.%.%.%.%.%.%.%.%.%.%.%.%.%.%.%.%.%.%.%.%.%.%.%.%.%.%.%.%.%.%.%.%.%.%.%.%.%.%.%.%.%.%.%.%.%.%.",
"%.%.%.%.%.%.%.%.%.%.%.%.%.%.%.%.+.%.%.%.%.%.%.%.%.%.%.%.%.%.%.%.%.%.%.%.%.%.%.%.%.%.%.%.%.%.%.%.",
"%.%.%.%.%.%.%.%.%.%.=.-.%.%.%.%.%.%.%.%.%.%.%.%.%.%.%.%.%.%.%.%.%.%.%.%.%.%.%.%.%.%.%.%.%.%.%.%.",
"%.%.%.%.%.%.%.%.%.=.%.%.%.%.%.%.%.%.%.%.%.%.%.%.%.%.%.%.%.%.%.%.%.%.%.%.%.%.%.%.%.%.%.%.%.%.%.%.",
"%.%.%.%.%.%.%.%.%.%.%.%.%.%.%.%.%.%.%.%.%.%.%.%.%.%.%.%.%.%.%.%.%.%.%.%.%.%.%.%.%.%.%.%.%.%.%.%.",
"%.%.%.%.%.%.%.%.%.%.%.%.%.%.%.%.%.%.%.%.%.%.%.%.%.%.%.%.%.%.%.%.%.%.%.%.%.%.%.%.%.%.%.%.%.%.%.%."
};
