/* XPM */
static char *result[] = {
/* columns rows colors chars-per-pixel */
"48 48 74 1 ",
"  c #01ADFF",
". c #0AAFFD",
"X c #0EB1FD",
"o c #13B2FD",
"O c #1CB5FC",
"+ c #23B7FB",
"@ c #25B8FC",
"# c #2CBAFB",
"$ c #35BEF7",
"% c #38BFF7",
"& c #33BCFA",
"* c #3CBEFB",
"= c #41BFFA",
"- c #3FC1F6",
"; c #46C3F6",
": c #4DC5F5",
"> c #44C1FB",
", c #4BC3FA",
"< c #53C7F5",
"1 c #5CCAF4",
"2 c #52C6FC",
"3 c #57C8FC",
"4 c #5CC9FB",
"5 c #6FD1EF",
"6 c #75D3EF",
"7 c #7AD4EF",
"8 c #65CDF4",
"9 c #6DCEF4",
"0 c #63CCFC",
"q c #6ECFFD",
"w c #70CFF5",
"e c #6DD0F1",
"r c #74D1F3",
"t c #7BD3F3",
"y c #76D2FD",
"u c #7BD3FB",
"i c #81D7EE",
"p c #85D8EE",
"a c #8AD9EF",
"s c #85D5F4",
"d c #8BD6F5",
"f c #87D8F0",
"g c #8ED9F3",
"h c #84D6FB",
"j c #87D8FC",
"k c #8BD9FB",
"l c #93DAF2",
"z c #9BDCF3",
"x c #92DBFC",
"c c #9CDEFB",
"v c #A4DEF3",
"b c #AADFF4",
"n c #9FE1F2",
"m c #A6E0F3",
"M c #ACE1F5",
"N c #A6E2FE",
"B c #ABE4FC",
"V c #B3E3F6",
"C c #BAE6F7",
"Z c #BFE8F7",
"A c #B4E6FB",
"S c #BBE7F8",
"D c #BDE8F9",
"F c #C2E9F7",
"G c #C4EBFB",
"H c #CCEEFD",
"J c #D0EFFD",
"K c #CFF0FF",
"L c #D3F1FD",
"P c #DCF4FD",
"I c #E3F6FD",
"U c #E8F7FE",
"Y c #E7F8FE",
"T c #E9F8FE",
/* pixels */
"                                                ",
"                                                ",
"                                                ",
"                oX                              ",
"        X@442X*0AB02o         O244-X            ",
"       >NHIYLuDHKLLPA3oo42&240BKPYLx-           ",
"      OGTIPLKHVVSGKLYIGGIHDHHFVSKLITL>          ",
"      NTPKLIIPFZMVKKLYYYLKHGVZGZHKKITL>         ",
"     &IIJLTTTTTIGMDKKLLLKKKGGITUPJLLPTPGGu      ",
"    *yIJKLTTUUIPLHKKKKKKKKKKHITUIHHKKLLHLGMv4   ",
"  .9CHJHKKPIIHHHKKHHGGHLHGHKKPILHHHHHGKHSml8O   ",
"   #hVHHHHHGmvGHKHHHCvCJGMHHHGHCbGJHHMCSn1O     ",
"    .*bFHGFvpaCHHHHHVlablmMFGFCv7lVSSp88<O      ",
"      1zMVz716vVGDVMt#1%o:7azlp;o-tteO          ",
"       +=w%O O1lvbv,o   . o+++O                 ",
"               O#&@                   X@@Oo     ",
"                                    *yBIHbd.    ",
"     o*o                           .lCJHHVb#    ",
"   ouBJB#                  +uN>o   >FHHHGGzo    ",
"   @vmvV#     #>o         #HIPHl+  OcGSCMvdO    ",
"    +<18.oxAxjKPA3       XSIPLLMls0OO;==-$@     ",
"        #qILHHGGHGk+     .bDHIUGZGGq            ",
"       #AGLHGmazSGGx.  0BNVDHIIJHHHjO           ",
"       .wsdkte889th=. oSPJHKHGLHHGGHM<          ",
"                      .pvCHGHGZVvvVVv<          ",
"            .. .      .O7avvbbmlapali+          ",
"           *NBNxo       O&#$***$#:5&#.          ",
"          &AHLLJc#O                             ",
"          tbGJIIIFlo                            ",
"         ubMGJUTTIS=         O#@.               ",
"         BJGJJUTTLGl,o      ,DPLjX              ",
"       >vLHGGHLIPHGVv:      jIIPA++             ",
"      #HPGvllnCFFGVva6     onKKHSdA0            ",
"      ojds5=#$9ldshwe%   #u8lGKHGGKPO           ",
"   .@&rk=.    .... .    OPJCMHLJKLHLhoX         ",
"   ,GGGHx.            .ojTHHHKHJHHHLGVk-        ",
"  .hCGFbl@           oATUPKKHSMbMSHKKHKu        ",
"   o=wp7%            =ALPJKLSbbMMZPLHKHhX..     ",
"                  o20dMHKKLPGMFIITTIJGLHVp8X    ",
"    .           XOxPHGDHKLIIPHPUTTTTKHHLHMlO    ",
"               4AJPLHHKLKKJJHHLIUTULSGHKKCb8o   ",
"             o*PPJJLSVDHKKLHHHJLPPLVbMGHKGVM8   ",
"            OdDLHHHHGvzSSDDGHDDDZZCvlzMCZCll1   ",
"            $aMDSGSZCg77szzvzzzzzzl7677gzf77:   ",
"            X;:14144<-oXoooooooooooo.oXoo.o..   ",
"                                        .       ",
"                                                ",
"                                                "
};
